<?xml version="1.0" standalone="no"?>
<!DOCTYPE svg PUBLIC "-//W3C//DTD SVG 20010904//EN"
 "http://www.w3.org/TR/2001/REC-SVG-20010904/DTD/svg10.dtd">
<svg version="1.0" xmlns="http://www.w3.org/2000/svg"
 width="360.000000pt" height="360.000000pt" viewBox="0 0 360.000000 360.000000"
 preserveAspectRatio="xMidYMid meet">

<g transform="translate(0.000000,360.000000) scale(0.100000,-0.100000)"
fill="#DEA01E" stroke="none">
<path d="M2267 2090 c-248 -42 -418 -182 -470 -388 l-13 -54 -44 67 c-52 80
-117 139 -190 174 -78 37 -207 36 -334 -2 -48 -15 -107 -27 -131 -27 -51 0
-60 -10 -68 -71 -6 -41 -4 -48 13 -52 31 -8 136 8 235 36 50 14 110 29 135 32
95 13 214 -35 315 -127 48 -45 70 -58 94 -58 20 0 31 5 31 14 0 24 89 97 158
129 66 32 69 32 212 31 92 0 178 -7 235 -18 50 -9 104 -20 122 -23 l31 -5 -12
53 -11 54 -55 7 c-30 5 -95 18 -145 29 -54 13 -126 22 -180 23 -78 1 -98 -3
-148 -26 -36 -17 -81 -51 -118 -88 -63 -64 -67 -49 -9 35 83 120 273 205 458
205 41 0 63 5 72 15 33 40 -53 56 -183 35z"/>
<path d="M1280 1714 c-47 -13 -89 -26 -95 -28 -5 -2 90 -6 213 -8 122 -1 222
-2 222 0 0 2 -28 16 -62 32 -80 38 -158 39 -278 4z"/>
<path d="M2075 1726 c-40 -13 -110 -46 -103 -49 1 -1 140 0 308 3 l305 5 -92
18 c-192 37 -346 46 -418 23z"/>
<path d="M850 1606 c-10 -13 -10 -19 0 -31 10 -12 74 -15 393 -17 l382 -3 59
-27 c42 -21 74 -28 116 -28 42 0 74 7 116 28 l59 27 382 3 c319 2 383 5 393
17 10 12 10 18 0 31 -12 13 -60 15 -394 12 l-381 -3 -66 -27 c-37 -16 -84 -28
-109 -28 -25 0 -72 12 -109 28 l-66 27 -381 3 c-334 3 -382 1 -394 -12z"/>
</g>
</svg>
