<svg xmlns="http://www.w3.org/2000/svg" version="1.1" xmlns:xlink="http://www.w3.org/1999/xlink" xmlns:svgjs="http://svgjs.dev/svgjs" width="1440" height="400" preserveAspectRatio="none" viewBox="0 0 1440 400"><g mask="url(&quot;#SvgjsMask1013&quot;)" fill="none"><rect width="1440" height="400" x="0" y="0" fill="rgba(47, 72, 88, 1)"></rect><path d="M1440 0L1129.53 0L1440 172.12z" fill="rgba(255, 255, 255, .1)"></path><path d="M1129.53 0L1440 172.12L1440 195.7L1091.79 0z" fill="rgba(255, 255, 255, .075)"></path><path d="M1091.79 0L1440 195.7L1440 250.10999999999999L981.13 0z" fill="rgba(255, 255, 255, .05)"></path><path d="M981.13 0L1440 250.10999999999999L1440 295.97999999999996L291.51 0z" fill="rgba(255, 255, 255, .025)"></path><path d="M0 400L409.04 400L0 384.02z" fill="rgba(0, 0, 0, .1)"></path><path d="M0 384.02L409.04 400L732.3900000000001 400L0 242.20999999999998z" fill="rgba(0, 0, 0, .075)"></path><path d="M0 242.21L732.3900000000001 400L944.7400000000001 400L0 143.58z" fill="rgba(0, 0, 0, .05)"></path><path d="M0 143.58000000000004L944.7400000000001 400L1294.8000000000002 400L0 120.33000000000004z" fill="rgba(0, 0, 0, .025)"></path></g><defs><mask id="SvgjsMask1013"><rect width="1440" height="400" fill="#ffffff"></rect></mask></defs></svg>