<?xml version="1.0" encoding="utf-8"?>
<!-- Generator: Adobe Illustrator 26.0.3, SVG Export Plug-In . SVG Version: 6.00 Build 0)  -->
<svg version="1.0" id="katman_1" xmlns="http://www.w3.org/2000/svg" xmlns:xlink="http://www.w3.org/1999/xlink" x="0px" y="0px"
	 viewBox="0 0 600 450" style="enable-background:new 0 0 600 450;" xml:space="preserve">
<style type="text/css">
	.st0{fill:white}
</style>
<g>
	<g>
		<path class="st0" d="M408.7,318.3c-3.3-2.3-7.7-1.4-10,1.8c-2.2,3.2-4.7,6.2-7.4,9.1c-1.8,1.9-4.3,4.3-7,6.6
			c-3,2.6-3.4,7.1-0.8,10.1c1.4,1.7,3.4,2.5,5.5,2.5c1.6,0,3.3-0.6,4.7-1.7c3.2-2.7,6-5.4,8.2-7.8c3.2-3.4,6.1-7,8.7-10.8
			C412.8,325,412,320.5,408.7,318.3z"/>
	</g>
</g>
<g>
	<g>
		<path class="st0" d="M377.4,350.5c-1.7-3.6-6-5.1-9.6-3.5l-0.2,0.1c-3.6,1.6-5.3,5.8-3.7,9.5c1.2,2.7,3.8,4.3,6.6,4.3
			c1,0,2-0.2,2.9-0.6c0.2-0.1,0.3-0.2,0.5-0.2C377.5,358.4,379.1,354.1,377.4,350.5z"/>
	</g>
</g>
<g>
	<g>
		<path class="st0" d="M462.7,60H137.6c-11.8,0-21.5,9.6-21.5,21.5V283c0,11.8,9.6,21.5,21.5,21.5H289c6.4,27.2,20.9,46.4,33.6,58.7
			c18.5,18,39.7,27.6,47.9,27.6c8.2,0,29.4-9.6,47.9-27.6c12.7-12.3,27.2-31.5,33.6-58.7h10.6c11.8,0,21.5-9.6,21.5-21.5V81.5
			C484.1,69.7,474.5,60,462.7,60z M441,275c0,37.9-17.5,63-32.1,77.4c-17.4,17.1-35.2,23.7-38.4,23.9c-3.1-0.2-21-6.8-38.4-23.9
			C317.5,338,300,312.9,300,275v-35.4c24.7-7.2,47.9-17,70.5-29.8c22.1,12.5,46.3,22.8,70.5,29.8V275z M469.8,283
			c0,3.9-3.2,7.1-7.1,7.1h-8.1c0.6-4.8,0.9-9.8,0.9-15.1v-40.8c0-3.2-2.2-6.1-5.3-6.9c-26.1-7.1-52.4-18.1-76-31.9
			c-2.2-1.3-5-1.3-7.3,0c-24.3,14.2-49.1,24.6-76,31.9c-3.1,0.9-5.3,3.7-5.3,6.9V275c0,5.2,0.3,10.3,0.9,15.1H137.6
			c-3.9,0-7.1-3.2-7.1-7.1V160.7h339.3V283z M469.8,146.3H130.5v-28.8h339.3V146.3z M469.8,103.2H130.5V81.5c0-3.9,3.2-7.1,7.1-7.1
			h325.1c3.9,0,7.1,3.2,7.1,7.1V103.2z"/>
	</g>
</g>
<g>
	<g>
		<path class="st0" d="M202.4,211c-4.3,0-8.6,0.9-12.6,2.5c-3.9-1.6-8.1-2.5-12.6-2.5c-17.8,0-32.3,14.5-32.3,32.3
			s14.5,32.3,32.3,32.3c4.5,0,8.7-0.9,12.6-2.5c4,1.7,8.2,2.5,12.6,2.5c17.8,0,32.3-14.5,32.3-32.3S220.2,211,202.4,211z
			 M177.2,261.3c-9.9,0-18-8.1-18-18c0-9.9,8.1-18,18-18c9.9,0,18,8.1,18,18C195.2,253.3,187.1,261.3,177.2,261.3z M204.1,261.2
			c3.4-5.1,5.4-11.3,5.4-17.9s-2-12.8-5.4-17.9c9.1,0.9,16.2,8.6,16.2,17.9C220.3,252.6,213.2,260.3,204.1,261.2z"/>
	</g>
</g>
<g>
	<g>
		<path class="st0" d="M189,178.6h-37c-4,0-7.2,3.2-7.2,7.2c0,4,3.2,7.2,7.2,7.2h37c4,0,7.2-3.2,7.2-7.2
			C196.2,181.9,193,178.6,189,178.6z"/>
	</g>
</g>
<g>
	<g>
		<path class="st0" d="M210.3,178.6h-0.3c-4,0-7.2,3.2-7.2,7.2c0,4,3.2,7.2,7.2,7.2h0.3c4,0,7.2-3.2,7.2-7.2
			C217.5,181.9,214.2,178.6,210.3,178.6z"/>
	</g>
</g>
<g>
	<g>
		<path class="st0" d="M410,258.5c-2.8-2.8-7.4-2.8-10.2,0l-38.4,38.4l-20.1-20.1c-2.8-2.8-7.4-2.8-10.2,0c-2.8,2.8-2.8,7.4,0,10.2
			l25.2,25.2c1.4,1.4,3.2,2.1,5.1,2.1s3.7-0.7,5.1-2.1l43.5-43.5C412.8,265.8,412.8,261.3,410,258.5z"/>
	</g>
</g>
</svg>
